<svg width="600" height="600" viewBox="0 0 600 600" fill="none" xmlns="http://www.w3.org/2000/svg">
<path d="M420 150C436.568 150 450 163.432 450 180V345C450 369.853 470.148 390 495 390C519.853 390 540.001 369.852 540.001 345V300C540.001 167.452 432.549 59.9995 300 59.9995C167.452 59.9995 59.9995 167.452 59.9995 300C59.9995 432.549 167.452 540.001 300 540.001C354.074 540.001 403.892 522.152 444.008 492.015C457.255 482.063 476.061 484.734 486.013 497.981C495.964 511.228 493.293 530.034 480.047 539.986C429.898 577.66 367.516 600 300 600C134.315 600 0 465.687 0 300C0 134.314 134.314 0 300 0C465.687 0 600 134.315 600 300V345C600 402.99 552.99 450 495 450C458.872 450 427.007 431.753 408.114 403.972C380.824 432.343 342.474 450 300 450C217.157 450 150 382.841 150 300C150 217.157 217.157 150 300 150C333.768 150 364.93 161.16 390 179.991C390.005 163.427 403.434 150 420 150ZM210 300C210 349.705 250.294 390 300 390C349.704 390 390 349.704 390 300C390 250.294 349.705 210 300 210C250.294 210 210 250.294 210 300Z" fill="black"/>
</svg>
