<svg width="621" height="600" viewBox="0 0 621 600" fill="none" xmlns="http://www.w3.org/2000/svg">
<path d="M311.278 0.00218891C237.431 -0.273957 165.908 25.5864 109.577 72.9306C53.2468 120.275 15.8071 185.995 3.99403 258.266C-7.81906 330.538 6.77 404.617 45.1364 467.175C83.5028 529.733 143.128 576.664 213.284 599.524C228.79 601.983 233.751 592.452 233.751 584.151V532.193C147.851 550.64 129.555 491.917 129.555 491.917C123.764 472.823 111.209 456.445 94.2027 445.8C65.9829 426.739 96.3735 427.353 96.3735 427.353C106.108 428.602 115.431 432.016 123.648 437.34C131.864 442.664 138.76 449.76 143.82 458.098C152.434 473.284 166.747 484.483 183.646 489.262C200.545 494.04 218.663 492.012 234.061 483.616C235.474 468.03 242.393 453.44 253.598 442.418C187.235 435.655 113.429 409.214 113.429 292.077C112.532 261.377 123.644 231.522 144.44 208.759C134.999 182.301 136.108 153.267 147.541 127.593C147.541 127.593 173.59 119.292 232.821 158.337C283.604 144.803 337.092 144.803 387.875 158.337C447.106 118.677 473.155 127.593 473.155 127.593C484.588 153.267 485.697 182.301 476.256 208.759C497.052 231.522 508.163 261.377 507.266 292.077C507.266 409.522 434.701 435.347 365.547 443.033C372.995 450.455 378.757 459.37 382.447 469.179C386.138 478.988 387.671 489.466 386.945 499.911V584.151C386.945 592.452 391.906 602.291 407.722 599.524C477.75 576.704 537.289 529.9 575.664 467.503C614.038 405.105 628.739 331.196 617.129 259.027C605.519 186.858 568.359 121.149 512.311 73.6816C456.262 26.2143 384.992 0.0933601 311.278 0.00218891Z" fill="black"/>
</svg>
