<svg width="600" height="601" viewBox="0 0 600 601" fill="none" xmlns="http://www.w3.org/2000/svg">
<path d="M132.37 225.841H15.4628V600.397H132.37V225.841Z" fill="black"/>
<path d="M71.4565 49C28.3483 49 0 76.91 0 113.967C0 150.32 27.4112 178.934 69.8165 178.934H70.7536C114.799 178.934 142.21 150.086 141.976 113.967C141.039 76.91 114.565 49 71.4565 49Z" fill="black"/>
<path d="M451.699 222.323C384.693 222.323 342.757 258.911 335.025 284.71V225.841H203.592C205.232 257.035 203.592 600.397 203.592 600.397H335.025V397.992C335.025 386.499 334.557 375.242 337.837 367.267C346.74 344.752 366.185 321.298 401.093 321.298C446.779 321.298 467.396 356.009 467.396 406.67V600.397H600V392.128C600 276.267 534.869 222.323 451.699 222.323Z" fill="black"/>
</svg>
